<svg xmlns="http://www.w3.org/2000/svg" width="140.511" height="40.628" viewBox="0 0 140.511 40.628"><g id="Logo2" transform="translate(-171 -112.238)"><path id="Path_920" data-name="Path 920" d="M-47.321-31.39H-44.4V-5.074a2.692,2.692,0,0,0,.688,1.957,2.57,2.57,0,0,0,1.935.71,5.814,5.814,0,0,0,1.118-.129,7.383,7.383,0,0,0,1.2-.344l.516,2.365a9.652,9.652,0,0,1-2,.559,11.654,11.654,0,0,1-2.042.215A4.346,4.346,0,0,1-46.16-.882a4.285,4.285,0,0,1-1.161-3.2ZM-37.174,0V-22.4h2.924V0Zm0-27.09v-4.3h2.924v4.3ZM-21.521.43a15.591,15.591,0,0,1-5.117-.86,12.3,12.3,0,0,1-4.3-2.494L-29.606-4.9A14.578,14.578,0,0,0-25.757-2.58a11.293,11.293,0,0,0,4.192.774,7.569,7.569,0,0,0,4.322-1.1A3.549,3.549,0,0,0-15.631-6.02a2.7,2.7,0,0,0-.43-1.57,3.723,3.723,0,0,0-1.269-1.1,9.9,9.9,0,0,0-2.107-.839q-1.269-.365-2.945-.752-1.935-.473-3.354-.946A10.257,10.257,0,0,1-28.079-12.3a3.877,3.877,0,0,1-1.376-1.484A4.834,4.834,0,0,1-29.907-16a6.373,6.373,0,0,1,.667-2.967,6.05,6.05,0,0,1,1.806-2.128,8.2,8.2,0,0,1,2.666-1.269,11.923,11.923,0,0,1,3.247-.43,12.575,12.575,0,0,1,4.687.839,9.263,9.263,0,0,1,3.4,2.214l-1.419,1.72a7.867,7.867,0,0,0-3.031-1.935,10.858,10.858,0,0,0-3.72-.645,9.235,9.235,0,0,0-2.15.237,5.176,5.176,0,0,0-1.742.752A3.708,3.708,0,0,0-26.682-18.3a3.876,3.876,0,0,0-.43,1.871,3.079,3.079,0,0,0,.3,1.462,2.569,2.569,0,0,0,.989.968,8.055,8.055,0,0,0,1.741.731q1.054.323,2.559.667,2.15.516,3.784,1.032a11.885,11.885,0,0,1,2.73,1.2,4.743,4.743,0,0,1,1.656,1.677,4.825,4.825,0,0,1,.559,2.408,5.84,5.84,0,0,1-2.365,4.9A10.231,10.231,0,0,1-21.521.43ZM1.613-1.075Q1.355-.946.86-.731T-.279-.3A13.338,13.338,0,0,1-1.741.086a8.333,8.333,0,0,1-1.72.172A6.252,6.252,0,0,1-5.267,0a4.211,4.211,0,0,1-1.5-.8A3.916,3.916,0,0,1-7.8-2.15a4.373,4.373,0,0,1-.387-1.892V-20.081h-3.1V-22.4h3.1v-7.568h2.924V-22.4h5.16v2.322h-5.16V-4.859a2.352,2.352,0,0,0,.86,1.828,2.994,2.994,0,0,0,1.849.58A5.492,5.492,0,0,0-.365-2.859a9.667,9.667,0,0,0,1.2-.581ZM13.782.43A10.918,10.918,0,0,1,9.267-.495,10.947,10.947,0,0,1,5.7-3.032a11.78,11.78,0,0,1-2.344-3.72,12.1,12.1,0,0,1-.839-4.515,11.817,11.817,0,0,1,.839-4.45A11.33,11.33,0,0,1,5.7-19.372a11.34,11.34,0,0,1,3.548-2.494,10.77,10.77,0,0,1,4.493-.924,10.77,10.77,0,0,1,4.494.924,10.683,10.683,0,0,1,3.5,2.516A11.73,11.73,0,0,1,24.016-15.7a11.807,11.807,0,0,1,.817,4.386q0,.344-.022.688a2.16,2.16,0,0,1-.064.473H5.612A9.43,9.43,0,0,0,6.45-6.816,9.389,9.389,0,0,0,8.256-4.171,7.935,7.935,0,0,0,10.793-2.43a7.656,7.656,0,0,0,3.075.623,8.1,8.1,0,0,0,2.193-.3,8.692,8.692,0,0,0,1.978-.817,6.927,6.927,0,0,0,1.613-1.268,5.644,5.644,0,0,0,1.1-1.656l2.537.688A7.45,7.45,0,0,1,21.823-2.9,10.206,10.206,0,0,1,19.63-1.14,10.74,10.74,0,0,1,16.878.022,11.766,11.766,0,0,1,13.782.43Zm8.256-12.814a9.047,9.047,0,0,0-.839-3.29,8.954,8.954,0,0,0-1.806-2.558,7.926,7.926,0,0,0-2.559-1.677,8.051,8.051,0,0,0-3.1-.6,8.051,8.051,0,0,0-3.1.6,7.926,7.926,0,0,0-2.559,1.677,8.242,8.242,0,0,0-1.763,2.58,9.767,9.767,0,0,0-.8,3.268ZM37.819.43a10.77,10.77,0,0,1-4.493-.925A10.924,10.924,0,0,1,29.8-3.01a11.414,11.414,0,0,1-2.3-3.7,12.143,12.143,0,0,1-.817-4.429,11.982,11.982,0,0,1,.838-4.472,11.718,11.718,0,0,1,2.322-3.7,11.2,11.2,0,0,1,3.526-2.537,10.459,10.459,0,0,1,4.45-.946,10.459,10.459,0,0,1,4.451.946A11.2,11.2,0,0,1,45.8-19.307a11.718,11.718,0,0,1,2.322,3.7,11.982,11.982,0,0,1,.839,4.472,11.868,11.868,0,0,1-.839,4.429A11.718,11.718,0,0,1,45.8-3.01,10.924,10.924,0,0,1,42.269-.495,10.666,10.666,0,0,1,37.819.43ZM29.692-11.094a9.636,9.636,0,0,0,.624,3.5,9.174,9.174,0,0,0,1.72,2.838,7.873,7.873,0,0,0,2.58,1.914,7.421,7.421,0,0,0,3.16.688,7.233,7.233,0,0,0,3.161-.709,8.393,8.393,0,0,0,2.6-1.935A9.22,9.22,0,0,0,45.3-7.654a9.517,9.517,0,0,0,.645-3.526,9.567,9.567,0,0,0-.645-3.5,9.16,9.16,0,0,0-1.763-2.881,8.476,8.476,0,0,0-2.58-1.935,7.1,7.1,0,0,0-3.139-.709,7.233,7.233,0,0,0-3.16.709,8,8,0,0,0-2.58,1.957,9.662,9.662,0,0,0-1.742,2.9A9.685,9.685,0,0,0,29.692-11.094Z" transform="translate(262.555 148.552)" fill="#222"></path><path id="Path_2" data-name="Path 2" d="M360.817,794.138l2.126,2.845,6.7-8.892c3.353-4.318,6.333-8.664,6.333-14.452a17.3,17.3,0,0,0-5.019-12.206c-10.754-10.832-29.254-3.114-29.254,12.206,0,6.706,3.743,10.947,7.422,15.869l5.6,7.494q4.846-6.483,9.71-12.953c2.326-2.993,4.966-6.418,4.966-10.41a10.563,10.563,0,1,0-21.126,0c0,4.643,3.5,8.405,6.1,11.887l2.406,3.219-2.057,2.752-2.974-3.98c-3.154-4.22-6.761-8.175-6.761-13.878,0-12.38,14.951-18.618,23.643-9.865a13.98,13.98,0,0,1,4.056,9.865c0,4.911-2.8,8.761-5.65,12.431l-4.088,5.423m-11.387-17.855a7.276,7.276,0,1,1,14.552,0c0,3-2.512,6.11-4.282,8.388l-2.992,3.968-1.839-2.46C355.006,780.858,351.567,777.118,351.567,773.638Z" transform="translate(-170.707 -644.135)" fill="#f91942"></path></g></svg>