<svg xmlns="http://www.w3.org/2000/svg" width="1062.6" height="170.193" viewBox="0 0 1062.6 170.193">
  <g id="openrouter" transform="translate(-27 -115.354)">
    <path id="Path_5" data-name="Path 5" d="M431.4,196.2c0,11.2-2.1,20.8-6.2,28.8a46.12,46.12,0,0,1-82,0c-4.2-8-6.2-17.7-6.2-28.8,0-11.2,2-20.8,6.1-28.8a46.2,46.2,0,0,1,82.1,0c4.1,8,6.2,17.6,6.2,28.8m-15.7,0c0-8.5-1.4-15.7-4.1-21.6a30.6,30.6,0,0,0-11.3-13.3,29.354,29.354,0,0,0-16.1-4.5,30,30,0,0,0-16.2,4.5c-4.7,3-8.4,7.5-11.2,13.3-2.7,5.9-4.1,13-4.1,21.6,0,8.5,1.4,15.7,4.1,21.5A30.7,30.7,0,0,0,368,231a30.012,30.012,0,0,0,16.2,4.6,28.616,28.616,0,0,0,16.1-4.6c4.8-3,8.5-7.4,11.3-13.3,2.7-5.8,4.1-13,4.1-21.5Zm34,81.8V170h15v12.7H466a39.753,39.753,0,0,1,3.8-5.6,22,22,0,0,1,18.7-8.1,30.6,30.6,0,0,1,28.7,18.6c2.9,6,4.3,13.3,4.3,21.8s-1.4,15.8-4.2,21.8a33,33,0,0,1-11.7,14,30,30,0,0,1-17,4.9c-4.7,0-8.6-.8-11.6-2.4a22,22,0,0,1-7.1-5.6,56.227,56.227,0,0,1-4-5.8h-.8V278H449.8m15-68.7a40.5,40.5,0,0,0,2.3,14.5,21.605,21.605,0,0,0,7,9.7,17.146,17.146,0,0,0,11.1,3.5,18.155,18.155,0,0,0,11.5-3.6,23.776,23.776,0,0,0,7-10,39.348,39.348,0,0,0,2.4-14.1,38.411,38.411,0,0,0-2.4-14,21.7,21.7,0,0,0-7-9.7,20.158,20.158,0,0,0-22.7-.2,22.646,22.646,0,0,0-7,9.6,40,40,0,0,0-2.3,14.3ZM572.4,250c-7.8,0-14.4-1.6-20-5a32.986,32.986,0,0,1-12.9-14c-3-6-4.5-13.2-4.5-21.3a48.316,48.316,0,0,1,4.5-21.3A35,35,0,0,1,552.2,174a38.5,38.5,0,0,1,32-3,31.3,31.3,0,0,1,19,19.2c2,5,2.9,11,2.9,18.2v5.4H543.6V202.3h47.5a21.961,21.961,0,0,0-2.5-10.7,18.6,18.6,0,0,0-17.2-10,20.609,20.609,0,0,0-11.2,3,22.3,22.3,0,0,0-10,19.2v9a30.024,30.024,0,0,0,2.8,13.3,19.872,19.872,0,0,0,7.8,8.4,23,23,0,0,0,11.7,2.9,22.386,22.386,0,0,0,8-1.3,16.4,16.4,0,0,0,10.2-10l14.4,2.7a25.3,25.3,0,0,1-6.2,11.2,30.462,30.462,0,0,1-11.2,7.4,41.7,41.7,0,0,1-15.3,2.6Zm66-48.2v46.7H623.1V170H638v12.8h1a21.763,21.763,0,0,1,8.5-10c3.8-2.6,8.7-3.8,14.6-3.8a28.413,28.413,0,0,1,14,3.3,22.77,22.77,0,0,1,9.4,10,36,36,0,0,1,3.4,16.3v50H673.6V200.4a19,19,0,0,0-4.5-13.3c-3-3.3-7-4.9-12.2-4.9a19,19,0,0,0-9.4,2.3,16.4,16.4,0,0,0-6.5,6.8,21.8,21.8,0,0,0-2.4,10.6Zm72,46.7V143.8h37.3c8,0,14.8,1.4,20.2,4.2a27.5,27.5,0,0,1,12,11.6,35,35,0,0,1,4,17,34.457,34.457,0,0,1-4,17,27.3,27.3,0,0,1-12,11.3c-5.4,2.7-12.2,4-20.3,4H719.4V195.3h26.8c5.1,0,9.3-.7,12.5-2.2a13.75,13.75,0,0,0,7-6.4,21,21,0,0,0,2.3-10,22.05,22.05,0,0,0-2.2-10.3,15.2,15.2,0,0,0-7.1-6.7,29.3,29.3,0,0,0-12.7-2.3H726.1v91.2H710.4m51.7-47.3,25.8,47.3h-18l-25.3-47.3Zm73,48.8a34.1,34.1,0,0,1-32-19.2,47,47,0,0,1-4.6-21.3,47.708,47.708,0,0,1,4.5-21.3,36.178,36.178,0,0,1,64,0,45,45,0,0,1,4.7,21.3,47,47,0,0,1-4.6,21.3,34.1,34.1,0,0,1-32,19.2m0-12.8a18.444,18.444,0,0,0,11.9-3.8,23.525,23.525,0,0,0,7-10,42,42,0,0,0,2.2-14,41.175,41.175,0,0,0-2.2-13.8,22.8,22.8,0,0,0-7-10.1,18.2,18.2,0,0,0-11.9-3.8c-4.8,0-8.8,1.2-12,3.8a25.129,25.129,0,0,0-7,10.2,43.446,43.446,0,0,0,.1,27.6,21.708,21.708,0,0,0,7,10.1c3.1,2.5,7.1,3.8,12,3.8ZM938.6,216V170h15.3v78.6h-15V234.9h-.8a24.4,24.4,0,0,1-23.5,14.7,26,26,0,0,1-13.4-3.4,23,23,0,0,1-9-10,36.3,36.3,0,0,1-3.4-16.2V170h15.3v48.1a18,18,0,0,0,4.4,12.8,15.236,15.236,0,0,0,11.6,4.8,19,19,0,0,0,15.7-8.7c1.9-2.9,2.8-6.6,2.8-11Zm72.5-46v12.3h-43V170h43m-31.4-18.8H995v74.3c0,3,.4,5.2,1.3,6.7a6.8,6.8,0,0,0,3.5,3,13.887,13.887,0,0,0,4.6.8q2.705-.308,5.4-.7l2.7,12.6a27.2,27.2,0,0,1-10,1.7,27.98,27.98,0,0,1-11.2-2.2,19.3,19.3,0,0,1-8.4-7,20.2,20.2,0,0,1-3.2-11.7V151.2Zm82.1,99a38.8,38.8,0,0,1-20-5,33.658,33.658,0,0,1-12.8-14.1,51.615,51.615,0,0,1,0-42.6,34.713,34.713,0,0,1,12.6-14.4,38.5,38.5,0,0,1,32-3,31.3,31.3,0,0,1,19,19.2c2,5,3,11,3,18.2v5.4H1033V202.4h47.4a23.1,23.1,0,0,0-2.4-10.7,18.7,18.7,0,0,0-17.3-10,20.609,20.609,0,0,0-11.2,3,22.9,22.9,0,0,0-9.9,19.2v9a28.708,28.708,0,0,0,2.8,13.3,18.716,18.716,0,0,0,7.8,8.4,23,23,0,0,0,11.7,2.9,24,24,0,0,0,7.9-1.3,16.7,16.7,0,0,0,10.2-9.9l14.4,2.6a26,26,0,0,1-6.2,11.2,30,30,0,0,1-11.2,7.4,41.6,41.6,0,0,1-15.3,2.6Zm50.7-1.6V170h14.8v12.5h.8a19.562,19.562,0,0,1,7.6-10,21.535,21.535,0,0,1,12.4-3.7q3.258.044,6.5.4v14.6a31.9,31.9,0,0,0-8-1,20,20,0,0,0-9.6,2.4,17.2,17.2,0,0,0-9.2,15.4v48h-15.3Z" transform="translate(-65)"/>
    <g id="Group_1" data-name="Group 1" transform="translate(-18)">
      <path id="Path_6" data-name="Path 6" d="M46.2,200.5c5.9,0,28.6-5.1,40.3-11.8,11.8-6.6,11.8-6.6,36.1-23.9,30.8-21.8,52.5-14.5,88.2-14.5" stroke="#000" stroke-width="35.3"/>
      <path id="Path_7" data-name="Path 7" d="M245.3,150.5,185,185.3V115.7Z" stroke="#000" stroke-width="0.4"/>
      <path id="Path_8" data-name="Path 8" d="M45,200.5c5.9,0,28.6,5,40.4,11.7,11.7,6.7,11.7,6.7,36,24,30.8,21.8,52.5,14.5,88.2,14.5" stroke="#000" stroke-width="35.3"/>
      <path id="Path_9" data-name="Path 9" d="M244.1,250.4l-60.3-34.7v69.5l60.3-34.8Z" stroke="#000" stroke-width="0.4"/>
    </g>
  </g>
</svg>
