<svg xmlns="http://www.w3.org/2000/svg" width="53" height="53" fill="none" xmlns:v="https://vecta.io/nano"><rect width="53" height="53" rx="6" fill="#f2e7ff"/><path d="M34.96 36.462c-.98 0-1.769.789-1.769 1.769S33.98 40 34.96 40s1.769-.789 1.769-1.769-.789-1.769-1.769-1.769zm-9.55 0c-.98 0-1.769.789-1.769 1.769S24.431 40 25.41 40s1.769-.789 1.769-1.769-.789-1.769-1.769-1.769zm16.544-19.347l-5.606.626-5.634 2.313 11.676 7.075.191-1.497.871-7.184a1.26 1.26 0 0 0-.544-1.17 1.17 1.17 0 0 0-.952-.163z" fill="#b57aff"/><path d="M16.239 25.385a10.23 10.23 0 0 0 10.177 9.116h2.966 8.463L15.096 14.857l1.143 10.528z" fill="#616bcb"/><path d="M41.953 17.115a1.26 1.26 0 0 1 .952.136c-.326-.354-.789-.599-1.333-.599H25.109l5.604 3.401 11.24-2.939z" fill="#a359ff"/><path d="M15.096 14.855l19.048 19.647h3.701L15.096 14.855z" fill="#4d57c4"/><path d="M9 12h5.66l27.402 16.654-.272 2.531c-.136 1.878-1.714 3.32-3.592 3.32h-.354L15.095 14.857h-3.238A2.86 2.86 0 0 1 9 12z" fill="url(#A)"/><path opacity=".5" d="M42.062 28.654L14.66 12 41.73 31.633a3.55 3.55 0 0 0 .058-.42l.275-2.559z" fill="url(#B)"/><defs><linearGradient id="A" x1="25.48" y1="34.383" x2="25.48" y2="12" gradientUnits="userSpaceOnUse"><stop stop-color="#bfbeff"/><stop offset="1" stop-color="#6fffd4"/></linearGradient><linearGradient id="B" x1="42.022" y1="30.223" x2="14.587" y2="11.832" gradientUnits="userSpaceOnUse"><stop stop-color="#fff"/><stop offset="1" stop-color="#fff" stop-opacity="0"/></linearGradient></defs></svg>