<svg xmlns="http://www.w3.org/2000/svg" width="53" height="53" fill="none" xmlns:v="https://vecta.io/nano"><g clip-path="url(#B)"><rect width="53" height="53" rx="6" fill="#ffe7fa"/><g fill="#af8fc2"><path d="M35.34 24.71v10.931a.99.99 0 0 0 .122.477 1 1 0 0 0 .336.36 7.82 7.82 0 0 0 1.541-1.306v-9.464l-1.998-.998zm-5.122-1.471v15.145c.001.23.082.452.229.628l1.77-.673V23.635a19.52 19.52 0 0 0-1.998-.396zm-5.123-.056v16.863c.577.063 1.161.048 1.734-.044l.261-.05V23.046a19.92 19.92 0 0 0-1.995.137zm-3.124.614l-2.002.642v13.994l1.986.849a1.03 1.03 0 0 0 .012-.117l.004-15.366zm-5.123 11.56v-9.52l-2.002 1.157v6.667l1.703 2.404c.094-.092.169-.203.221-.324s.078-.252.078-.384z"/></g><g opacity=".15" fill="#b7b4d9"><path d="M40.775 28.031c-13.211-10.52-25.696-1.53-28.724.991 0 0 3.894 6.938 5.435 7.996s6.134 3.553 9.345 2.985 10.139-3.118 11.1-5.781 2.844-6.19 2.844-6.19z"/><path d="M25.822 40.228c-3.173 0-7.062-2.163-8.418-3.094-1.55-1.064-5.316-7.758-5.478-8.043l-.058-.104.087-.076c1.45-1.207 5.387-4.151 10.602-5.414 6.487-1.567 12.645-.087 18.303 4.422l.092.074-.052.106c-.019.036-1.892 3.549-2.838 6.171-.97 2.687-7.913 5.289-11.208 5.873-.341.058-.686.087-1.032.084zm-13.59-11.171c.492.87 3.939 6.887 5.333 7.844s6.046 3.526 9.24 2.959c3.241-.574 10.057-3.102 10.99-5.689.861-2.386 2.479-5.496 2.799-6.103-12.825-10.126-24.833-1.92-28.362.989z"/></g><path d="M25.822 40.228c-3.173 0-7.062-2.163-8.418-3.094-1.55-1.064-5.316-7.758-5.478-8.043l-.058-.104.087-.076c1.799-1.48 3.774-2.732 5.879-3.73 5.609-2.649 14.157-4.325 23.027 2.737l.092.074-.053.106c-.019.036-1.892 3.549-2.838 6.171-.97 2.687-7.913 5.289-11.208 5.873a5.9 5.9 0 0 1-1.032.084zm-13.59-11.171c.492.87 3.939 6.887 5.333 7.844s6.046 3.526 9.24 2.959c3.241-.574 10.057-3.102 10.99-5.689.861-2.386 2.479-5.496 2.799-6.103-8.722-6.887-17.119-5.235-22.631-2.629a28.15 28.15 0 0 0-5.731 3.618z" fill="#b7b4d9"/><path d="M35.798 36.479c.151.098.325.154.504.161s.358-.034.516-.12.29-.213.381-.367.14-.331.139-.511v-.467a7.82 7.82 0 0 1-1.541 1.305z" fill="#af8fc2"/><g opacity=".35"><path d="M37.339 22.019a1 1 0 0 0-1.001-1.001 1 1 0 0 0-1.001 1.001v2.691c.684.299 1.352.632 2.002.998v-3.69z" fill="#b7b4d9"/></g><g opacity=".35"><path d="M32.216 18.998a1 1 0 0 0-1.001-1.001 1 1 0 0 0-1.001 1.001v4.241a19.55 19.55 0 0 1 2.002.396v-4.637z" fill="#b7b4d9"/></g><g fill="#af8fc2"><path d="M31.217 39.38a1 1 0 0 0 .382-.076 1.01 1.01 0 0 0 .324-.216 1 1 0 0 0 .293-.706v-.044l-1.77.673a.99.99 0 0 0 .343.272 1 1 0 0 0 .427.098zm-6.122.666v.112a1 1 0 1 0 2.002 0v-.207l-.261.05a6.44 6.44 0 0 1-1.741.044z"/></g><g opacity=".35"><path d="M27.094 15.92a1 1 0 0 0-1.001-1.001 1 1 0 0 0-1.001 1.001v7.263l2.002-.137V15.92z" fill="#b7b4d9"/></g><g opacity=".35"><path d="M21.971 18.998a1 1 0 0 0-1.001-1.001 1 1 0 0 0-1.001 1.001v5.44l2.002-.642v-4.799z" fill="#b7b4d9"/></g><g fill="#af8fc2"><path d="M19.973 39.164c0 .254.097.499.271.683a1 1 0 0 0 .666.311c.253.015.504-.068.698-.231a1 1 0 0 0 .35-.647l-1.986-.849v.731zm-5.122-3.807a1 1 0 0 0 1.703.708c-.522-.642-1.118-1.502-1.703-2.404v1.696z"/></g><g opacity=".35"><path d="M16.848 22.015a1 1 0 0 0-1.001-1.001 1 1 0 0 0-1.001 1.001v4.976l2.002-1.157v-3.819z" fill="#b7b4d9"/></g><g opacity=".15"><path d="M13.818 33.496c6.25-3.622 15.196-6.569 25.885-4.229 0 0-2.984 7.939-4.976 8.402s-2.56 2.581-6.155 2.611-9.461-.418-11.206-2.188-3.549-4.596-3.549-4.596z" fill="#eda2c0"/></g><path d="M17.265 38.197c-1.736-1.761-3.549-4.594-3.569-4.623l-.079-.125.128-.074c5.676-3.289 14.797-6.696 25.987-4.246l-.06.278c-11.022-2.41-20.011.901-25.653 4.142.369.566 1.941 2.922 3.449 4.45l-.203.199z" fill="#eda2c0"/><path d="M19.465 32.442c-.307 0-.607-.091-.863-.262s-.455-.413-.572-.697-.149-.596-.089-.897.207-.578.424-.796.493-.366.795-.426.613-.03.897.087.527.316.698.571.263.555.264.862c0 .204-.04.407-.117.595s-.192.361-.337.505-.316.259-.504.338-.391.119-.595.119z" fill="#f16c4d"/><path d="M19.466 29.762c.223 0 .441.066.626.19s.33.3.415.506.107.433.064.651-.151.419-.309.577-.359.264-.578.308-.445.02-.651-.066-.381-.231-.505-.416-.189-.404-.188-.627c.001-.298.12-.584.331-.794s.497-.329.795-.329zm0-.854a1.98 1.98 0 0 0-1.83 1.223 1.98 1.98 0 0 0 .431 2.158 1.98 1.98 0 0 0 2.159.427 1.98 1.98 0 0 0 1.22-1.832c-.001-.525-.21-1.028-.581-1.4s-.874-.58-1.399-.581v.003z" fill="#fff"/><path d="M31.217 24.948c-.307 0-.608-.091-.863-.261s-.455-.413-.573-.697-.149-.596-.089-.898.208-.578.425-.796.494-.365.796-.425.614-.029.898.088.527.317.697.572.262.556.262.863c-.001.412-.164.807-.455 1.098s-.686.455-1.098.456z" fill="#8c8dc4"/><path d="M31.217 22.268c.223 0 .441.066.626.19s.33.3.415.505.108.432.064.651-.151.419-.308.577-.358.265-.577.308-.445.021-.651-.064-.382-.23-.505-.415-.19-.403-.19-.626c0-.299.119-.585.33-.797s.498-.33.796-.33zm0-.854a1.98 1.98 0 0 0-1.829 1.222 1.98 1.98 0 0 0 .429 2.158 1.98 1.98 0 0 0 2.158.429 1.98 1.98 0 0 0 1.222-1.829 1.98 1.98 0 0 0-1.98-1.98z" fill="#fff"/><path d="M26.094 41.14c-8.299 0-15.05-6.752-15.05-15.05s6.752-15.05 15.051-15.05 15.05 6.752 15.05 15.05-6.752 15.05-15.05 15.05zm0-27.824c-7.043 0-12.773 5.731-12.773 12.773s5.731 12.773 12.773 12.773 12.773-5.73 12.773-12.773a12.79 12.79 0 0 0-12.773-12.773z" fill="url(#A)"/></g><defs><linearGradient id="A" x1="15.457" y1="36.727" x2="36.732" y2="15.453" gradientUnits="userSpaceOnUse"><stop stop-color="#ab4d9c"/><stop offset=".37" stop-color="#b259a2"/><stop offset=".84" stop-color="#bd6fac"/></linearGradient><clipPath id="B"><rect width="53" height="53" rx="6" fill="#fff"/></clipPath></defs></svg>