<svg xmlns="http://www.w3.org/2000/svg" width="53" height="53" fill="none" xmlns:v="https://vecta.io/nano"><rect width="53" height="53" rx="6" fill="#3c087e"/><rect x="9" y="12.592" width="32.256" height="29.452" rx="2.805" fill="#f2edff"/><path d="M9 15.397c0-1.549 1.256-2.805 2.805-2.805h26.647c1.549 0 2.805 1.256 2.805 2.805v4.909H9v-4.909z" fill="#873eff"/><use href="#D" fill="#3c087e"/><g fill="#b999ff"><use href="#D" x="9.116"/><use href="#D" x="18.233"/><use href="#D" y="8.415"/><use href="#D" x="9.116" y="8.415"/><use href="#D" x="18.233" y="8.415"/></g><g filter="url(#A)"><circle cx="38.41" cy="15.438" r="7.59" fill="#fff"/><path d="M39.856 15.139c-.006 1.433-.617 2.912-1.88 3.585-.888.476-2.987.841-2.987-.708V12.25c0-.859.721-1.143 1.442-1.102 1.073.058 2.099.563 2.722 1.491.398.592.617 1.305.686 2.025l.017.476z" fill="url(#B)"/><path d="M41.846 14.634c-.121-1.183-.842-2.175-1.84-2.773-.663-.4-1.494-.499-1.926.302 0 .006-2.912 5.389-2.912 5.389-.254.47-.196.859.035 1.178.346.476 1.032.69 1.592.748.519.058 1.044 0 1.545-.116 1.517-.348 2.86-1.387 3.316-2.895a4.69 4.69 0 0 0 .19-1.833z" fill="url(#C)"/><path d="M37.976 18.73c1.263-.679 1.874-2.158 1.88-3.585l-.023-.47c-.063-.719-.288-1.433-.686-2.025-.219-.331-.49-.603-.796-.83a1.2 1.2 0 0 0-.265.348c0 .006-2.912 5.389-2.912 5.389-.19.348-.202.656-.104.922l.023.058c.006.012.006.017.011.029.461.893 2.111.569 2.872.162z" fill="#e23b7b"/></g><defs><filter id="A" x="18.487" y="5.002" width="30.359" height="30.359" filterUnits="userSpaceOnUse" color-interpolation-filters="sRGB"><feFlood flood-opacity="0" result="A"/><feColorMatrix in="SourceAlpha" values="0 0 0 0 0 0 0 0 0 0 0 0 0 0 0 0 0 0 127 0" result="B"/><feOffset dx="-4.74359" dy="4.74359"/><feGaussianBlur stdDeviation="3.795"/><feComposite in2="B" operator="out"/><feColorMatrix values="0 0 0 0 0 0 0 0 0 0 0 0 0 0 0 0 0 0 0.15 0"/><feBlend in2="A"/><feBlend in="SourceGraphic"/></filter><linearGradient id="B" x1="37.41" y1="13.51" x2="37.41" y2="16.015" gradientUnits="userSpaceOnUse"><stop stop-color="#7047eb"/><stop offset="1" stop-color="#a244ff"/></linearGradient><linearGradient id="C" x1="40.801" y1="12.429" x2="37.338" y2="19.098" gradientUnits="userSpaceOnUse"><stop stop-color="#ff9b53"/><stop offset="1" stop-color="#ff698f"/></linearGradient><path id="D" d="M13.908 25.214h4.207v4.207h-4.207z"/></defs></svg>