<svg xmlns="http://www.w3.org/2000/svg" width="53" height="53" fill="none" xmlns:v="https://vecta.io/nano"><rect width="53" height="53" rx="6" fill="url(#A)"/><g fill-rule="evenodd"><path d="M20.53 8.44h11.025l1.264 1.264 8.576 8.576v16.88c0 5.412-4.428 9.84-9.84 9.84H20.53c-5.412 0-9.84-4.428-9.84-9.84V18.282c0-5.414 4.428-9.842 9.84-9.842z" fill="url(#B)"/><path d="M31.557 8.44l9.819 9.819h-4.909c-2.7 0-4.909-2.209-4.909-4.909V8.44h0z" fill="url(#C)"/></g><path d="M18.914 24.415h-3.13a.94.94 0 0 0-.939.939v.713 3.039 3.324a.94.94 0 0 0 .939.938.94.94 0 0 0 .938-.938v-2.386h2.192c1.551 0 2.813-1.262 2.813-2.813a2.82 2.82 0 0 0-2.813-2.815zm0 3.752h-2.192v-1.875h2.192a.94.94 0 0 1 .936.938.94.94 0 0 1-.936.936zm7.595-3.752h-2.52a.94.94 0 0 0-.939.939v7.076a.94.94 0 0 0 .939.939h2.52c1.907 0 3.458-1.552 3.458-3.46v-2.034c0-1.907-1.551-3.458-3.458-3.458zm1.581 5.493c0 .873-.709 1.583-1.581 1.583h-1.581v-5.199h1.581c.872 0 1.581.709 1.581 1.581v2.034zm9.193-1.075a.94.94 0 0 1-.939.939h-2.881v2.658a.94.94 0 0 1-.938.939.94.94 0 0 1-.939-.939v-7.076a.94.94 0 0 1 .939-.939h3.82a.94.94 0 0 1 .939.939.94.94 0 0 1-.939.939h-2.881v1.602h2.881a.94.94 0 0 1 .939.938z" fill="#fff"/><defs><linearGradient id="A" x1="26.5" y1="0" x2="26.5" y2="53" gradientUnits="userSpaceOnUse"><stop stop-color="#ffe7eb"/><stop offset="1" stop-color="#ffecf0"/></linearGradient><linearGradient id="B" x1="26.042" y1="8.44" x2="26.042" y2="45" gradientUnits="userSpaceOnUse"><stop stop-color="#fd4985"/><stop offset=".417" stop-color="#fe6a88"/><stop offset=".767" stop-color="#fe7f89"/><stop offset="1" stop-color="#fe868a"/></linearGradient><linearGradient id="C" x1="38.151" y1="7.459" x2="36.146" y2="18.983" gradientUnits="userSpaceOnUse"><stop stop-color="#fff"/><stop offset=".417" stop-color="#ffb4c3"/><stop offset=".767" stop-color="#ffe1e3"/><stop offset="1" stop-color="#fe868a"/></linearGradient></defs></svg>