<svg xmlns="http://www.w3.org/2000/svg" width="53" height="53" fill="none" xmlns:v="https://vecta.io/nano"><rect width="53" height="53" rx="6" fill="#3c087e"/><path d="M13.783 32.323l10.533-9.353 2.058 2.058L17.02 35.56a2.3 2.3 0 0 1-3.35.106 2.29 2.29 0 0 1 .112-3.344z" fill="#b797fc"/><path d="M26.379 34.628c0-1.056.855-1.905 1.905-1.905h7.761c1.05 0 1.905.849 1.905 1.905v.849H26.379v-.849zm-.159 1.439h11.89c1.05 0 1.905.849 1.905 1.905v1.504a.66.66 0 0 1-.655.655H24.97c-.366 0-.655-.295-.655-.655v-1.504c0-1.056.855-1.905 1.905-1.905z" fill="#f2edff"/><path d="M34.398 20.956l-6.019-6.019-5.624 5.624 6.019 6.019 5.624-5.624zm-12.178-.689c-.554.554-1.45.554-2.004 0s-.554-1.45 0-2.004l5.852-5.851A1.4 1.4 0 0 1 27.07 12c.361-.004.725.135 1.002.412.554.554.554 1.45 0 2.004l-5.851 5.851zm8.857 8.857c-.554.554-1.45.554-2.004 0s-.554-1.45 0-2.004l5.851-5.851a1.41 1.41 0 0 1 .998-.415 1.42 1.42 0 0 1 1.006.415c.554.554.554 1.45 0 2.004l-5.852 5.851z" fill="#b797fc"/></svg>