<svg xmlns="http://www.w3.org/2000/svg" width="53" height="53" fill="none" xmlns:v="https://vecta.io/nano"><rect width="53" height="53" rx="6" fill="#e1eeff"/><mask id="A" maskUnits="userSpaceOnUse" x="11" y="12" width="30" height="29"><path d="M41 12.437H11.352v28.128H41V12.437z" fill="#fff"/></mask><g mask="url(#A)"><path fill-rule="evenodd" d="M18.194 34.745a.76.76 0 0 1-.76-.76v-3.041a.76.76 0 0 1 .76-.76h2.281a.76.76 0 0 1 .76.76v3.041a.76.76 0 0 1-.76.76h-2.281zm5.701.002a.76.76 0 0 1-.76-.76v-7.222a.76.76 0 0 1 .76-.76h2.281a.76.76 0 0 1 .76.76v7.222a.76.76 0 0 1-.76.76h-2.281zm5.702-.001a.76.76 0 0 1-.76-.76V22.962a.76.76 0 0 1 .76-.76h2.281a.76.76 0 0 1 .76.76v11.023a.76.76 0 0 1-.76.76h-2.281z" fill="#1b49f6"/><path fill-rule="evenodd" d="M15.153 17.378a1.14 1.14 0 0 1 1.14-1.14h14.989a.38.38 0 0 0 .326-.184l1.824-3.041a.38.38 0 0 0-.326-.576H16.293c-2.729 0-4.941 2.212-4.941 4.942v18.245c0 2.729 2.212 4.941 4.941 4.941h17.485c2.729 0 4.941-2.212 4.941-4.941V20.039h1.841a.38.38 0 0 0 .333-.563l-3.742-6.813a.38.38 0 0 0-.666 0l-3.742 6.813a.38.38 0 0 0 .333.563h1.841v15.585a1.14 1.14 0 0 1-1.14 1.14H16.293a1.14 1.14 0 0 1-1.14-1.14V17.378z" fill="url(#B)"/></g><defs><linearGradient id="B" x1="14.065" y1="13.197" x2="35.452" y2="41.585" gradientUnits="userSpaceOnUse"><stop stop-color="#1b4bf6"/><stop offset="1" stop-color="#00e9f8"/></linearGradient></defs></svg>