<svg xmlns="http://www.w3.org/2000/svg" width="53" height="53" fill="none" xmlns:v="https://vecta.io/nano"><rect width="53" height="53" rx="6" fill="#231f20"/><path fill-rule="evenodd" d="M36.192 12a4.99 4.99 0 0 1 2.813.871c.833.568 1.482 1.375 1.865 2.319s.483 1.983.288 2.985a5.2 5.2 0 0 1-1.386 2.645c-.708.722-1.61 1.215-2.592 1.414a4.97 4.97 0 0 1-2.925-.294c-.925-.391-1.716-1.053-2.272-1.903a5.24 5.24 0 0 1-.853-2.87 5.22 5.22 0 0 1 1.483-3.653c.95-.969 2.237-1.513 3.58-1.513zm-8.802 0a13.55 13.55 0 0 1 2.576.245 8.08 8.08 0 0 0-1.611 4.11c-.321-.033-.644-.049-.967-.049-1.807 0-3.578.523-5.106 1.507s-2.752 2.391-3.529 4.055-1.076 3.52-.862 5.351.932 3.563 2.071 4.995l.92 1.155-1.413 2.454h7.919a9.4 9.4 0 0 0 3.661-.742c1.161-.49 2.215-1.209 3.103-2.115s1.593-1.982 2.074-3.166a9.93 9.93 0 0 0 .728-3.735l-.04-.895c1.469-.136 2.87-.692 4.043-1.603.144.827.216 1.665.215 2.504-.002 3.729-1.456 7.305-4.041 9.941s-6.09 4.117-9.745 4.117H12l3.805-6.44-.016-.028a14.27 14.27 0 0 1-2.173-7.101 14.3 14.3 0 0 1 1.68-7.239c1.186-2.215 2.936-4.064 5.064-5.352A13.58 13.58 0 0 1 27.39 12z" fill="#ff0f45"/></svg>