<svg xmlns="http://www.w3.org/2000/svg" width="53" height="53" fill="none" xmlns:v="https://vecta.io/nano"><rect width="53" height="53" rx="6" fill="#000"/><path d="M36.005 12.001H16.98a4.98 4.98 0 0 0-4.98 4.98v19.045c5.719-6.277 14.986-11.496 16.995-12.59a.57.57 0 0 1 .694.116c.209.225.197.578-.022.797-5.522 5.548-7.646 13.996-8.196 16.636h14.534a4.98 4.98 0 0 0 4.98-4.98V16.981a4.98 4.98 0 0 0-4.98-4.98zm2.145 8.46a6.28 6.28 0 0 0-3.511 1.759 6.35 6.35 0 0 0-1.776 3.494h-.065a6.3 6.3 0 0 0-1.765-3.497c-.956-.96-2.169-1.573-3.505-1.776v-.061c1.337-.201 2.551-.808 3.511-1.759s1.577-2.163 1.776-3.494h.065a6.33 6.33 0 0 0 1.766 3.497c.956.96 2.167 1.573 3.505 1.774v.065-.002z" fill="#f8a720"/></svg>