<svg xmlns="http://www.w3.org/2000/svg" width="53" height="53" fill="none" xmlns:v="https://vecta.io/nano"><rect width="53" height="53" rx="6" fill="#ececff"/><path d="M26.433 31.858l-13.436-7.401c-.313-.171-.712-.057-.911.285a.55.55 0 0 0-.085.285v12.127C12 38.719 13.281 40 14.847 40h23.087c1.566 0 2.847-1.281 2.847-2.847V24.912a.63.63 0 0 0-.683-.626.48.48 0 0 0-.285.085l-13.379 7.487z" fill="#000391"/><path d="M26.489 29.667l12.013-6.832c.313-.171.427-.598.256-.911-.029-.057-.085-.114-.142-.171L28.368 12.73c-1.082-.968-2.676-.968-3.786-.028L14.22 21.839a.7.7 0 0 0-.057.939c.057.057.114.085.171.142l12.155 6.747z" fill="#009bff"/></svg>