<svg xmlns="http://www.w3.org/2000/svg" width="53" height="53" fill="none" xmlns:v="https://vecta.io/nano"><rect width="53" height="53" rx="6" fill="#dcf8ff"/><path d="M15 23.891V40.13l5.7-9.468c1.185-1.969 3.316-3.173 5.614-3.173h4.723c4.277 0 7.744-3.467 7.744-7.744S35.314 12 31.037 12h-4.146C20.324 12 15 17.324 15 23.891z" fill="url(#B)"/><mask id="A" maskUnits="userSpaceOnUse" x="15" y="12" width="24" height="29" mask-type="alpha"><g opacity=".16"><path d="M15 23.891V40.13l5.7-9.468c1.185-1.969 3.316-3.173 5.614-3.173h4.723c4.277 0 7.744-3.467 7.744-7.744S35.314 12 31.037 12h-4.146C20.324 12 15 17.324 15 23.891z" fill="url(#C)"/></g></mask><g mask="url(#A)"><path opacity=".16" fill-rule="evenodd" d="M15.486 40.13c1.475-11.685 4.887-17.528 10.238-17.528 8.026 0 11.329 1.008 11.329-7.286 0-5.53 7.708-3.667 23.124 5.589l-36.02 23.852-8.67-4.627z" fill="url(#D)"/></g><defs><linearGradient id="B" x1="29.268" y1="15.463" x2="17.325" y2="32.705" gradientUnits="userSpaceOnUse"><stop offset="0" stop-color="#0acefe"/><stop offset="1" stop-color="#495aff"/></linearGradient><linearGradient id="C" x1="26.891" y1="12" x2="26.891" y2="40.13" gradientUnits="userSpaceOnUse"><stop stop-color="#265ff9"/><stop offset="1" stop-color="#4339ff"/></linearGradient><linearGradient id="D" x1="37.832" y1="12.214" x2="37.832" y2="44.758" gradientUnits="userSpaceOnUse"><stop stop-color="#265ff9"/><stop offset="1" stop-color="#4339ff"/></linearGradient></defs></svg>