<svg xmlns="http://www.w3.org/2000/svg" width="53" height="53" fill="none" xmlns:v="https://vecta.io/nano"><rect width="53" height="53" rx="6" fill="#efffff"/><path d="M30.669 26.351v4.334c0 2.494-2.003 4.498-4.497 4.498s-4.498-2.003-4.498-4.498v-4.334h-4.947v4.334a9.45 9.45 0 0 0 9.445 9.445 9.45 9.45 0 0 0 9.445-9.445v-4.334h-4.947z" fill="#23b89a"/><path d="M21.675 12H9l1.513 4.947h11.162V12zm16.968 0H30.67v4.947h7.973a1.23 1.23 0 0 1 1.227 1.227 1.23 1.23 0 0 1-1.227 1.227H30.67v4.947h7.973c3.394 0 6.174-2.78 6.174-6.174A6.17 6.17 0 0 0 38.643 12zm-16.969 7.441H11.493l1.472 4.947h8.709v-4.947z" fill="#94a4a4"/></svg>