<svg xmlns="http://www.w3.org/2000/svg" width="53" height="53" fill="none" xmlns:v="https://vecta.io/nano"><rect width="53" height="53" rx="5.48" fill="#ffede8"/><path d="M24.242 41a2.91 2.91 0 0 0 2.909-2.908 2.91 2.91 0 0 0-2.908-2.908 2.91 2.91 0 0 0-2.908 2.908A2.91 2.91 0 0 0 24.242 41zm9.481-1.938a2.91 2.91 0 0 0 2.909-2.908 2.91 2.91 0 0 0-2.909-2.908 2.91 2.91 0 0 0-2.908 2.908 2.91 2.91 0 0 0 2.909 2.908z" fill="#000"/><path d="M38.742 30.509a12.21 12.21 0 0 1-2.133 3.231c-.689-.819-1.724-1.336-2.887-1.336-.97 0-1.874.366-2.542.991-.668.603-1.12 1.465-1.206 2.413-.259 2.262-1.594 2.499-1.961 2.52 0-.065.022-.151.022-.215a3.76 3.76 0 1 0-7.541 0c0 .409.065.819.194 1.185-.108 0-.237 0-.345.021l-2.111.022h-5.063c-.366 0-.646-.28-.646-.646 0-.172.065-.345.194-.452.108-.108.28-.194.452-.194h4.46c.172 0 .345-.065.452-.194.108-.108.194-.28.194-.452 0-.366-.28-.646-.646-.646h-2.801c-.366 0-.646-.28-.646-.646 0-.172.065-.345.194-.452s.28-.194.452-.194h4.115c.172 0 .345-.065.453-.194.108-.108.194-.28.194-.452 0-.366-.28-.646-.646-.646h-2.176c-.366 0-.646-.28-.646-.646 0-.172.065-.345.194-.452.108-.108.28-.194.452-.194h1.444.043a26.9 26.9 0 0 0 .345-4.718l-.043-2.65c-.043-3.339-.065-7.604 2.133-10.34 3.749-4.632 10.751-3.77 14.823-.108 4.137 3.684 5.559 10.34 3.232 15.446z" fill="#ea983e"/><g opacity=".5"><path d="M24.735 17.002c.323-.56.819-.991 1.4-1.314a4.91 4.91 0 0 1 1.918-.538 6.15 6.15 0 0 1 1.982.194c.646.172 1.271.452 1.831.797 1.12.689 2.047 1.68 2.65 2.822.582 1.142.883 2.413.689 3.641-.646-1.056-1.271-1.96-2.025-2.714-.732-.776-1.551-1.4-2.413-1.896-.431-.237-.883-.452-1.357-.625l-.711-.237-.733-.172c-.495-.108-.991-.151-1.53-.151-.259 0-.539.022-.819.043l-.883.151z" fill="#fff"/></g><path d="M18.533 23.164v2.327l.043 2.65c.022 1.551-.065 3.167-.345 4.718h-.043-1.422c-.172 0-.345.065-.452.194-.108.108-.194.28-.194.452 0 .366.28.646.646.646h2.198c.366 0 .646.28.646.646 0 .172-.065.345-.194.452-.108.108-.28.194-.453.194h-4.136c-.172 0-.345.065-.452.194-.108.108-.194.28-.194.452 0 .366.28.646.646.646h2.801c.366 0 .646.28.646.646 0 .172-.065.345-.194.452-.108.108-.28.194-.452.194h-4.481c-.172 0-.345.065-.452.194-.108.108-.194.28-.194.452 0 .366.28.646.646.646h5.063l2.111-.022c.108 0 .237 0 .345-.022-.129-.366-.194-.776-.194-1.185a3.76 3.76 0 1 1 7.541 0c0 .065 0 .151-.022.215.086 0 .215-.022.388-.065.259-.969.388-2.004.388-3.059a12.19 12.19 0 0 0-10.234-12.021z" fill="#d85837"/></svg>