<svg xmlns="http://www.w3.org/2000/svg" width="53" height="53" fill="none" xmlns:v="https://vecta.io/nano"><rect width="53" height="53" rx="5.48" fill="url(#A)"/><g fill="#fff"><path opacity=".5" d="M33.126 25.587c-.021 5.192-2.249 10.551-6.852 12.989-3.237 1.723-10.888 3.048-10.888-2.564V15.12c0-3.111 2.627-4.141 5.255-3.993 3.909.21 7.651 2.039 9.921 5.402 1.45 2.144 2.249 4.729 2.501 7.335.021.589.063 1.156.063 1.724z"/><path d="M40.378 23.758c-.441-4.288-3.069-7.882-6.705-10.047-2.349-1.41-5.275-1.787-6.884.857-.093.153-.178.316-.263.473L16.039 34.331c-.925 1.703-.715 3.111.126 4.267 1.261 1.724 3.762 2.501 5.801 2.711 1.892.21 3.804 0 5.633-.42 5.528-1.261 10.425-5.023 12.085-10.488.652-2.144.925-4.393.694-6.642z"/></g><defs><linearGradient id="A" x1="26.5" y1="0" x2="26.5" y2="53" gradientUnits="userSpaceOnUse"><stop stop-color="#ff7d92"/><stop offset=".229" stop-color="#e3397d"/><stop offset=".635" stop-color="#800cd2"/><stop offset="1" stop-color="#5812d0"/></linearGradient></defs></svg>