<svg xmlns="http://www.w3.org/2000/svg" xmlns:v="https://vecta.io/nano" width="228" height="75" fill="none"><style><![CDATA[.B{fill:#fff}.C{fill:#b7b4d9}.D{fill-rule:evenodd}.E{opacity:.35}.F{fill:#af8fc2}]]></style><rect x="145.77" width="33.124" height="33.124" rx="9.28" class="B"/><path d="M168.392 7.781H156.21c-1.762 0-3.189 1.367-3.189 3.056v11.687c3.662-3.852 9.597-7.055 10.883-7.726.149-.077.331-.047.444.071.134.138.126.355-.014.489-3.536 3.405-4.896 8.589-5.248 10.209h9.306c1.76 0 3.189-1.367 3.189-3.056V10.837c0-1.689-1.429-3.056-3.189-3.056zm1.374 5.192c-.857.123-1.632.496-2.248 1.08-.605.579-1.007 1.34-1.137 2.144h-.042a3.81 3.81 0 0 0-1.13-2.146c-.612-.589-1.389-.965-2.244-1.09v-.037c.856-.123 1.633-.496 2.248-1.08s1.009-1.328 1.137-2.144h.041c.129.807.529 1.569 1.131 2.146a4.04 4.04 0 0 0 2.244 1.088v.04-.001z" fill="#f8a720"/><rect x="194.678" width="33.323" height="33.323" rx="9.278" class="B"/><path d="M203 14.921v10.818l3.797-6.307c.789-1.312 2.209-2.114 3.74-2.114h3.146a5.16 5.16 0 0 0 5.159-5.159A5.16 5.16 0 0 0 213.683 7h-2.762C206.546 7 203 10.546 203 14.921z" fill="url(#C)"/><mask id="A" maskUnits="userSpaceOnUse" x="203" y="7" width="16" height="19" mask-type="alpha"><g opacity=".16"><path d="M203 14.921v10.818l3.797-6.307c.789-1.312 2.209-2.114 3.74-2.114h3.146a5.16 5.16 0 0 0 5.159-5.159A5.16 5.16 0 0 0 213.683 7h-2.762C206.546 7 203 10.546 203 14.921z" fill="url(#D)"/></g></mask><g mask="url(#A)" class="D"><path opacity=".16" d="M203.324 25.739c.982-7.784 3.256-11.676 6.82-11.676 5.346 0 7.547.672 7.547-4.854 0-3.684 5.135-2.442 15.404 3.723L209.1 28.821l-5.776-3.083z" fill="url(#E)"/></g><g clip-path="url(#L)"><rect x="48.59" width="40.986" height="40.986" rx="9.28" class="B"/><g class="F"><path d="M70.676 15.443v6.831a.62.62 0 0 0 .286.523c.355-.229.679-.504.963-.816v-5.915l-1.249-.624zm-3.201-.919v9.465a.62.62 0 0 0 .143.393l1.106-.421v-9.19c-.412-.104-.829-.187-1.249-.248zm-3.202-.035v10.539c.361.04.725.03 1.084-.028l.163-.032V14.403l-1.247.086zm-1.951.384l-1.251.401v8.746l1.241.53a.88.88 0 0 0 .008-.074l.002-9.603zm-3.202 7.224v-5.95l-1.251.723v4.167l1.065 1.503a.62.62 0 0 0 .187-.443z"/></g><g opacity=".15" class="C"><path d="M74.073 17.519c-8.257-6.575-16.06-.956-17.952.619 0 0 2.434 4.336 3.397 4.997s3.833 2.221 5.84 1.865 6.336-1.948 6.937-3.613 1.778-3.868 1.778-3.868z"/><path d="M64.727 25.142c-1.983 0-4.413-1.352-5.261-1.934-.969-.665-3.322-4.849-3.424-5.026l-.036-.065.054-.047c.906-.755 3.367-2.594 6.626-3.384 4.054-.979 7.903-.054 11.439 2.763l.058.046-.033.066c-.012.022-1.182 2.218-1.773 3.857-.606 1.679-4.945 3.305-7.005 3.67-.213.037-.429.054-.645.053zm-8.493-6.982c.307.544 2.462 4.304 3.333 4.903s3.779 2.204 5.774 1.849c2.025-.358 6.285-1.939 6.868-3.555.538-1.491 1.549-3.435 1.75-3.814-8.015-6.329-15.52-1.2-17.725.618z"/></g><path d="M64.727 25.142c-1.983 0-4.413-1.352-5.261-1.934-.969-.665-3.322-4.849-3.424-5.026l-.036-.065.054-.047c1.125-.925 2.358-1.707 3.674-2.331 3.505-1.656 8.847-2.703 14.391 1.711l.058.046-.033.066c-.012.022-1.182 2.218-1.773 3.857-.606 1.679-4.945 3.305-7.005 3.67-.213.037-.429.054-.645.053zm-8.493-6.982c.307.544 2.462 4.304 3.333 4.903s3.779 2.204 5.774 1.849c2.025-.358 6.285-1.939 6.868-3.555.538-1.491 1.549-3.435 1.75-3.814-5.451-4.304-10.699-3.272-14.144-1.643-1.281.607-2.483 1.366-3.582 2.261z" class="C"/><path d="M70.963 22.798a.62.62 0 0 0 .637.025.62.62 0 0 0 .325-.549v-.292c-.284.312-.608.586-.963.816z" class="F"/><g class="E C"><path d="M71.925 13.761c0-.166-.066-.325-.183-.442s-.276-.183-.442-.183-.325.066-.442.183-.183.276-.183.442v1.682a13.91 13.91 0 0 1 1.251.624v-2.306z"/></g><g class="E C"><path d="M68.724 11.873c0-.166-.066-.325-.183-.442s-.276-.183-.442-.183-.325.066-.442.183-.183.276-.183.442v2.65a12.18 12.18 0 0 1 1.251.248v-2.898z"/></g><g class="F"><path d="M68.101 24.611a.63.63 0 0 0 .239-.047.62.62 0 0 0 .203-.135c.058-.058.104-.127.135-.203s.048-.157.048-.239v-.028l-1.106.421a.62.62 0 0 0 .481.231zm-3.828.417v.07c0 .166.066.325.183.442s.276.183.442.183.325-.066.442-.183.183-.276.183-.442v-.129l-.163.032c-.36.058-.726.068-1.088.028z"/></g><g class="E C"><path d="M65.523 9.95c0-.166-.066-.325-.183-.442s-.276-.183-.442-.183-.325.066-.442.183-.183.276-.183.442v4.539l1.251-.086V9.95z"/></g><g class="E C"><path d="M62.322 11.873c0-.166-.066-.325-.183-.442s-.276-.183-.442-.183-.325.066-.442.183-.183.276-.183.442v3.4l1.251-.401v-2.999z"/></g><g class="F"><path d="M61.072 24.477a.62.62 0 0 0 .17.427c.109.115.258.185.416.194s.315-.042.437-.144.2-.247.219-.404l-1.241-.53v.457zm-3.201-2.38c0 .123.036.244.105.347s.166.183.28.23.239.06.36.036a.63.63 0 0 0 .32-.17c-.326-.401-.698-.939-1.065-1.503v1.06z"/></g><g class="E C"><path d="M59.12 13.759c0-.166-.066-.325-.183-.442s-.276-.183-.442-.183-.325.066-.442.183-.183.277-.183.442v3.11l1.251-.723v-2.387z"/></g><g opacity=".15"><path d="M57.227 20.934c3.906-2.264 9.497-4.106 16.178-2.643 0 0-1.865 4.962-3.11 5.251s-1.6 1.613-3.847 1.632-5.913-.261-7.003-1.367-2.218-2.872-2.218-2.872z" fill="#eda2c0"/></g><path d="M59.38 23.872c-1.085-1.1-2.218-2.871-2.23-2.889l-.049-.078.08-.046c3.547-2.056 9.248-4.185 16.241-2.654l-.038.174c-6.889-1.506-12.506.563-16.032 2.588.231.354 1.213 1.826 2.155 2.781l-.127.124z" fill="#eda2c0"/><path d="M60.754 20.276a.97.97 0 0 1-.897-.599.97.97 0 0 1 .209-1.058.97.97 0 0 1 1.057-.212.97.97 0 0 1 .601.895.97.97 0 0 1-.284.688.97.97 0 0 1-.687.285z" fill="#f16c4d"/><path d="M60.755 18.6c.139 0 .276.041.391.119s.206.188.259.316.067.27.04.407-.095.262-.193.36-.224.165-.361.192-.278.013-.407-.041-.238-.144-.316-.26-.118-.252-.118-.392c.001-.186.075-.365.207-.496s.311-.205.497-.205zm0-.534a1.24 1.24 0 0 0-.688.209c-.204.136-.362.329-.456.556a1.24 1.24 0 0 0-.07.715c.048.24.166.461.339.634s.394.291.634.338a1.24 1.24 0 0 0 .715-.071c.226-.094.419-.253.555-.457s.208-.443.207-.688a1.24 1.24 0 0 0-1.238-1.238v.002z" class="B"/><path d="M68.101 15.592a.97.97 0 0 1-.897-.599.97.97 0 0 1 .21-1.058.97.97 0 0 1 1.058-.211.97.97 0 0 1 .599.897.97.97 0 0 1-.97.971z" fill="#8c8dc4"/><path d="M68.099 13.917c.139 0 .275.041.391.119s.206.187.259.316.067.27.04.407-.094.262-.193.36-.224.165-.36.193-.278.013-.407-.04-.239-.143-.316-.259-.119-.252-.119-.391c0-.187.074-.366.206-.498s.311-.206.498-.206zm0-.534a1.24 1.24 0 0 0-1.143.764 1.24 1.24 0 0 0 .268 1.349 1.24 1.24 0 0 0 1.349.268c.226-.094.419-.252.555-.456s.209-.443.209-.687a1.24 1.24 0 0 0-1.238-1.238z" class="B"/><path d="M64.898 25.712a9.42 9.42 0 0 1-9.406-9.406 9.42 9.42 0 0 1 9.406-9.406 9.42 9.42 0 0 1 9.406 9.406 9.42 9.42 0 0 1-9.406 9.406zm0-17.389c-4.401 0-7.983 3.582-7.983 7.983s3.582 7.983 7.983 7.983 7.983-3.581 7.983-7.983-3.581-7.983-7.983-7.983z" fill="url(#F)"/></g><rect x="97.18" width="33.124" height="33.124" rx="9.28" class="B"/><mask id="B" maskUnits="userSpaceOnUse" x="104" y="7" width="19" height="19"><path d="M122.803 7.772h-18.53v17.579h18.53V7.772z" class="B"/></mask><g mask="url(#B)" class="D"><path d="M108.549 21.715c-.262 0-.475-.213-.475-.475v-1.9c0-.262.213-.475.475-.475h1.426c.262 0 .475.213.475.475v1.9c0 .262-.213.475-.475.475h-1.426zm3.563 0c-.263 0-.475-.213-.475-.475v-4.514c0-.262.212-.475.475-.475h1.425c.263 0 .475.213.475.475v4.514c0 .262-.212.475-.475.475h-1.425zm3.564 0c-.262 0-.475-.213-.475-.475v-6.889c0-.262.213-.475.475-.475h1.426c.262 0 .475.213.475.475v6.889c0 .262-.213.475-.475.475h-1.426z" fill="#1b49f6"/><path d="M106.649 10.861c0-.394.319-.713.713-.713h9.368c.083 0 .16-.044.203-.115l1.141-1.9c.095-.158-.019-.36-.204-.36h-10.508a3.09 3.09 0 0 0-3.089 3.088v11.403a3.09 3.09 0 0 0 3.089 3.088h10.927a3.09 3.09 0 0 0 3.089-3.088v-9.74h1.15c.181 0 .296-.194.209-.352l-2.339-4.258c-.09-.164-.326-.164-.416 0l-2.339 4.258c-.087.158.028.352.208.352h1.151v9.74c0 .394-.319.713-.713.713h-10.927c-.394 0-.713-.319-.713-.713V10.861z" fill="url(#G)"/></g><rect width="33.124" height="33.124" rx="9.28" class="B"/><path d="M16.52 19.911l-8.397-4.626c-.196-.107-.445-.036-.569.178-.036.053-.053.125-.053.178v7.579c0 .979.801 1.779 1.779 1.779h14.428c.979 0 1.779-.801 1.779-1.779v-7.65c0-.231-.196-.409-.427-.391a.3.3 0 0 0-.178.053l-8.362 4.679z" fill="#000391"/><path d="M16.556 18.541l7.508-4.27a.43.43 0 0 0 .16-.569.47.47 0 0 0-.089-.107l-6.405-5.64c-.676-.605-1.672-.605-2.366-.018l-6.476 5.711c-.16.16-.178.409-.036.587.036.036.071.053.107.089l7.597 4.216z" fill="#009bff"/><rect x="23.676" y="41.084" width="33.124" height="33.124" rx="9.28" class="B"/><path d="M42.843 57.553v2.709c0 1.559-1.252 2.811-2.811 2.811s-2.811-1.252-2.811-2.811v-2.709h-3.092v2.709c0 3.271 2.658 5.903 5.903 5.903 3.271 0 5.903-2.658 5.903-5.903v-2.709h-3.092z" fill="#23b89a"/><path d="M37.222 48.584h-7.921l.945 3.092h6.976v-3.092zm10.605 0h-4.983v3.092h4.983a.77.77 0 0 1 .767.767.77.77 0 0 1-.767.767h-4.983v3.092h4.983c2.121 0 3.858-1.738 3.858-3.859s-1.712-3.858-3.858-3.858zm-10.607 4.65h-6.363l.92 3.092h5.443v-3.092z" fill="#94a4a4"/><rect x="72.586" y="41.084" width="33.124" height="33.124" rx="9.28" class="B"/><path d="M80.599 62.449l7.489-6.65 1.463 1.463-6.65 7.489c-.625.709-1.715.742-2.382.076a1.63 1.63 0 0 1 .08-2.377zm8.955 1.639c0-.75.608-1.354 1.354-1.354h5.518c.746 0 1.354.604 1.354 1.354v.604h-8.227v-.604zm-.114 1.023h8.453c.746 0 1.354.604 1.354 1.354v1.069c0 .256-.21.465-.465.465H88.551c-.26 0-.465-.21-.465-.465v-1.069c0-.751.608-1.354 1.354-1.354zm5.816-10.744l-4.28-4.279-3.999 3.999 4.28 4.279 3.999-3.998zm-8.659-.489c-.394.394-1.031.394-1.425 0s-.394-1.031 0-1.425l4.16-4.16c.197-.197.456-.295.712-.293a1.01 1.01 0 0 1 .712.293c.394.394.394 1.031 0 1.425l-4.16 4.16zm6.297 6.297c-.394.394-1.031.394-1.425 0s-.394-1.031 0-1.425l4.16-4.16c.197-.197.456-.295.71-.295a1.01 1.01 0 0 1 .715.295c.394.394.394 1.031 0 1.425l-4.16 4.16z" fill="#833cde"/><rect x="121.924" y="41.084" width="33.12" height="33.12" rx="9.28" class="B"/><g fill="#b57aff"><use href="#M"/><use href="#M" x="-5.99"/><path d="M147.666 52.208l-3.515.392-3.534 1.45 7.322 4.437.12-.939.546-4.505a.79.79 0 0 0-.342-.734c-.17-.12-.392-.154-.597-.102z"/></g><path d="M131.539 57.394c.358 3.259 3.106 5.717 6.382 5.717h1.86 5.307l-14.266-12.319.717 6.603z" fill="#616bcb"/><path d="M147.667 52.208a.79.79 0 0 1 .597.085c-.205-.222-.495-.375-.836-.375h-10.324l3.514 2.133 7.049-1.843z" fill="#a359ff"/><path d="M130.822 50.791l11.946 12.321h2.32l-14.266-12.321z" fill="#4d57c4"/><path d="M127 49h3.549l17.185 10.444-.171 1.587c-.085 1.177-1.075 2.082-2.252 2.082h-.222l-14.267-12.321h-2.03A1.79 1.79 0 0 1 127 49z" fill="url(#H)"/><path opacity=".5" d="M147.733 59.444L130.549 49l16.975 12.312c.017-.085.031-.178.037-.264l.172-1.605z" fill="url(#I)"/><rect x="171.043" y="41.084" width="33.124" height="33.124" rx="9.28" class="B"/><path d="M193.352 48.977c.596 0 1.18.181 1.676.519s.883.819 1.111 1.382.288 1.181.172 1.779-.404 1.146-.826 1.576-.959.724-1.545.843a2.96 2.96 0 0 1-1.743-.175c-.551-.233-1.022-.628-1.354-1.134a3.12 3.12 0 0 1-.509-1.71 3.11 3.11 0 0 1 .884-2.177c.566-.577 1.333-.902 2.134-.902zm-5.246 0a8.07 8.07 0 0 1 1.535.146c-.539.708-.872 1.557-.959 2.449-.192-.02-.384-.029-.576-.029a5.62 5.62 0 0 0-3.043.898c-.911.587-1.64 1.425-2.103 2.417s-.641 2.098-.514 3.189.556 2.123 1.234 2.976l.549.688-.842 1.462h4.719c.748 0 1.489-.15 2.181-.442s1.32-.721 1.849-1.261.949-1.181 1.236-1.887.434-1.462.434-2.226l-.024-.533c.875-.081 1.71-.412 2.41-.955.086.493.128.992.128 1.492-.001 2.222-.867 4.353-2.408 5.924s-3.629 2.453-5.807 2.453h-9.169l2.267-3.838-.01-.017c-.796-1.266-1.243-2.728-1.295-4.231a8.52 8.52 0 0 1 1.001-4.314 8.31 8.31 0 0 1 3.018-3.189 8.09 8.09 0 0 1 4.189-1.174z" fill="#ff0f45" class="D"/><rect x="72.799" y="40.986" width="33.124" height="33.124" rx="9.28" class="B"/><g class="D"><path d="M85.785 45.986h6.707l.769.769 5.217 5.217V62.24c0 3.292-2.694 5.986-5.986 5.986h-6.707c-3.292 0-5.986-2.694-5.986-5.986V51.973c0-3.293 2.694-5.987 5.986-5.987z" fill="url(#J)"/><path d="M92.492 45.986l5.973 5.973h-2.986c-1.643 0-2.986-1.344-2.986-2.986v-2.986h0z" fill="url(#K)"/></g><path d="M84.803 55.704h-1.904a.57.57 0 0 0-.571.571v.434 1.849 2.022a.57.57 0 1 0 1.142 0v-1.451h1.333c.944 0 1.711-.768 1.711-1.711s-.768-1.713-1.711-1.713zm0 2.282H83.47v-1.14h1.333a.57.57 0 0 1 0 1.14zm4.62-2.282h-1.533a.57.57 0 0 0-.571.571v4.304a.57.57 0 0 0 .571.571h1.533c1.16 0 2.104-.944 2.104-2.105v-1.238c0-1.16-.944-2.104-2.104-2.104zm.962 3.341c0 .531-.431.963-.962.963h-.962v-3.162h.962c.53 0 .962.431.962.962v1.238zm5.592-.654a.57.57 0 0 1-.571.571h-1.753v1.617a.57.57 0 1 1-1.142 0v-4.304a.57.57 0 0 1 .571-.571h2.324a.57.57 0 1 1 0 1.142h-1.753v.975h1.753a.57.57 0 0 1 .571.571z" class="B"/><defs><linearGradient id="C" x1="212.504" y1="9.307" x2="204.549" y2="20.792" href="#N"><stop offset="0" stop-color="#0acefe"/><stop offset="1" stop-color="#495aff"/></linearGradient><linearGradient id="D" x1="210.921" y1="7" x2="210.921" y2="25.739" href="#N"><stop stop-color="#265ff9"/><stop offset="1" stop-color="#4339ff"/></linearGradient><linearGradient id="E" x1="218.209" y1="7.143" x2="218.209" y2="28.821" href="#N"><stop stop-color="#265ff9"/><stop offset="1" stop-color="#4339ff"/></linearGradient><linearGradient id="F" x1="58.25" y1="22.954" x2="71.546" y2="9.657" href="#N"><stop stop-color="#ab4d9c"/><stop offset=".37" stop-color="#b259a2"/><stop offset=".84" stop-color="#bd6fac"/></linearGradient><linearGradient id="G" x1="105.969" y1="8.248" x2="119.335" y2="25.99" href="#N"><stop stop-color="#1b4bf6"/><stop offset="1" stop-color="#00e9f8"/></linearGradient><linearGradient id="H" x1="137.335" y1="63.037" x2="137.335" y2="49" href="#N"><stop stop-color="#bfbeff"/><stop offset="1" stop-color="#6fffd4"/></linearGradient><linearGradient id="I" x1="147.708" y1="60.428" x2="130.503" y2="48.895" href="#N"><stop stop-color="#fff"/><stop offset="1" stop-color="#fff" stop-opacity="0"/></linearGradient><linearGradient id="J" x1="89.138" y1="45.986" x2="89.138" y2="68.226" href="#N"><stop stop-color="#fd4985"/><stop offset=".417" stop-color="#fe6a88"/><stop offset=".767" stop-color="#fe7f89"/><stop offset="1" stop-color="#fe868a"/></linearGradient><linearGradient id="K" x1="96.503" y1="45.39" x2="95.284" y2="52.4" href="#N"><stop stop-color="#fff"/><stop offset=".417" stop-color="#ffb4c3"/><stop offset=".767" stop-color="#ffe1e3"/><stop offset="1" stop-color="#fe868a"/></linearGradient><clipPath id="L"><rect x="48.59" width="33.124" height="33.124" rx="9.28" class="B"/></clipPath><path id="M" d="M143.281 64.341c-.614 0-1.109.495-1.109 1.109s.495 1.109 1.109 1.109 1.109-.495 1.109-1.109-.495-1.109-1.109-1.109z"/><linearGradient id="N" gradientUnits="userSpaceOnUse"/></defs></svg>
